<svg width="120" height="120" viewBox="0 0 120 120" fill="none" xmlns="http://www.w3.org/2000/svg">
<rect width="120" height="120" rx="20" fill="white"/>
<path d="M66.918 45.7834V63.1293C66.918 64.0816 67.9715 64.6566 68.7724 64.1416L99.4485 44.4167C99.793 44.1952 100.001 43.8139 100.001 43.4044V26.2553C100.001 25.3056 98.9525 24.73 98.1513 25.2401L67.4752 44.7682C67.1281 44.9891 66.918 45.372 66.918 45.7834Z" fill="#034DFF"/>
<path d="M53.082 45.6194V62.9653C53.082 63.9175 52.0285 64.4926 51.2276 63.9776L20.5515 44.2526C20.207 44.0312 19.9989 43.6498 19.9989 43.2403V26.0913C19.9989 25.1415 21.0475 24.566 21.8487 25.076L52.5248 44.6041C52.8719 44.825 53.082 45.2079 53.082 45.6194Z" fill="#034DFF"/>
<path d="M76.3281 71.2994V83.7785C76.3281 84.1897 76.5381 84.5725 76.8848 84.7935L92.7655 94.9148C93.5667 95.4254 94.6159 94.8499 94.6159 93.8998V76.2421C94.6159 75.8329 94.408 75.4518 94.064 75.2302L82.3091 67.6596C81.9141 67.4052 81.4072 67.4039 81.0109 67.6563L76.8851 70.2843C76.5382 70.5052 76.3281 70.8881 76.3281 71.2994Z" fill="#034DFF"/>
<path d="M43.6719 71.1119V83.591C43.6719 84.0022 43.4619 84.385 43.1152 84.606L27.2345 94.7273C26.4333 95.2379 25.3841 94.6624 25.3841 93.7123V76.0546C25.3841 75.6454 25.592 75.2643 25.936 75.0427L37.6909 67.4721C38.0859 67.2177 38.5928 67.2164 38.9891 67.4688L43.1149 70.0968C43.4618 70.3177 43.6719 70.7006 43.6719 71.1119Z" fill="#034DFF"/>
</svg>
