<svg width="214" height="36" viewBox="0 0 214 36" fill="none" xmlns="http://www.w3.org/2000/svg">
<g clip-path="url(#clip0_424_66)">
<path d="M68.2785 12.2488L58.8556 15.1563C57.6514 12.0594 54.5936 9.90742 51.0806 10.0222C49.4535 10.0754 47.9568 10.6109 46.7172 11.4803L39.4531 4.64757C42.4697 1.97523 46.4038 0.296151 50.747 0.15426C57.8121 -0.0765454 64.0549 3.8198 67.1556 9.66728C67.1618 9.68003 67.1694 9.69273 67.1753 9.70363C67.3156 9.97106 67.452 10.2404 67.5795 10.5138C67.8404 11.0771 68.0719 11.6505 68.2766 12.247L68.2785 12.2488Z" fill="black"></path>
<path d="M30.1052 31.0088C27.5566 33.3814 24.3075 35.0223 20.6774 35.5808C20.3193 35.638 19.9548 35.6804 19.5899 35.7157C19.3689 35.7391 19.1475 35.7552 18.924 35.7677C18.7614 35.7769 18.5968 35.7823 18.436 35.7894C18.3287 35.7917 18.2194 35.7924 18.1119 35.7926C18.0175 35.7944 17.9251 35.7976 17.8304 35.7936C17.771 35.7934 17.7137 35.7946 17.6543 35.7924C17.5579 35.7921 17.4634 35.7919 17.3686 35.7862C17.1255 35.7793 16.8839 35.767 16.6403 35.751C16.4897 35.7426 16.3406 35.7268 16.1916 35.713C16.0593 35.6999 15.9289 35.6869 15.7965 35.6721C15.7387 35.6642 15.6846 35.658 15.6267 35.6501C15.5184 35.6358 15.4083 35.6215 15.3018 35.6052C8.80424 34.6512 3.36991 30.1761 1.13086 24.0927L10.5179 20.9492C11.7787 24.0498 14.9037 26.1572 18.4353 25.9597C20.046 25.8697 21.5174 25.3097 22.7315 24.4232L30.1015 31.011L30.1052 31.0088Z" fill="black"></path>
<path d="M9.94473 18.3664C9.83434 16.3907 10.4463 14.5432 11.5503 13.0775L4.13933 6.45312C3.3442 7.4107 2.64834 8.45347 2.0617 9.56052L1.77145 10.1361C1.14862 11.4248 0.678923 12.8014 0.379077 14.2332C0.0646774 15.7362 -0.0614012 17.2936 0.0281347 18.8963C0.104776 20.2682 0.332975 21.6002 0.707898 22.8721L10.1392 19.7243C10.0386 19.2835 9.97062 18.8298 9.9446 18.3645L9.94473 18.3664Z" fill="black"></path>
<path d="M17.538 9.87316C18.0054 9.84704 18.464 9.86403 18.9134 9.91485L20.9398 0.253485C19.634 0.0300842 18.2845 -0.0482516 16.9047 0.0288352C15.307 0.118099 13.7673 0.417125 12.3132 0.889179C10.9176 1.34685 9.60008 1.97427 8.38271 2.73687L7.86091 3.08089C6.82026 3.78916 5.86101 4.59474 4.99805 5.49869L12.4012 12.1161C13.7428 10.8242 15.534 9.98698 17.54 9.87491L17.538 9.87316Z" fill="black"></path>
<path d="M24.4535 13.1082L25.0732 13.6885L31.619 6.3844C31.2324 5.92999 30.8223 5.48985 30.393 5.06929L29.8439 4.55913C29.8439 4.55913 29.8437 4.5536 29.838 4.5539C28.7479 3.57943 27.5296 2.73435 26.2239 2.04788L25.6802 1.76894C24.5834 1.23936 23.4073 0.816084 22.1932 0.509766L20.1699 10.1617C21.8961 10.6468 23.3981 11.6965 24.4517 13.1101L24.4535 13.1082Z" fill="black"></path>
<path d="M44.8873 22.8906L44.0728 22.0957L37.3652 29.248C37.7395 29.7113 38.1336 30.1611 38.5527 30.5839L39.0903 31.1123C39.0903 31.1123 39.0957 31.1121 39.0959 31.1175C40.1708 32.1169 41.3617 32.99 42.6511 33.7066L43.1879 33.9906C44.2797 34.5526 45.4384 35.0033 46.6451 35.3357L48.8936 25.7481C47.2793 25.2328 45.8822 24.2218 44.8873 22.8888V22.8906Z" fill="black"></path>
<path d="M56.7759 24.0214C55.4082 25.2705 53.6052 26.0586 51.6082 26.1237C51.1091 26.1402 50.6194 26.1079 50.1431 26.0366L47.8945 35.6208C49.1947 35.8743 50.5423 35.9837 51.9216 35.9386C53.5209 35.8866 55.0672 35.6232 56.5318 35.1848C57.9375 34.7597 59.2693 34.163 60.5039 33.4287L61.0335 33.0968C62.0904 32.4128 63.068 31.6297 63.9515 30.746L56.7759 24.0195V24.0214Z" fill="black"></path>
<path d="M68.6462 13.4763L59.2233 16.3801C59.3217 16.8432 59.3836 17.3204 59.3994 17.8083C59.4644 19.7972 58.8009 21.6396 57.6504 23.0834L64.8336 29.8095C65.6505 28.8708 66.3705 27.8443 66.9825 26.7512L67.2861 26.1824C67.9385 24.9085 68.4474 23.5429 68.7801 22.111C69.1238 20.6214 69.2841 19.0674 69.2315 17.4631C69.1864 16.0824 68.9894 14.7529 68.6442 13.4727L68.6462 13.4763Z" fill="black"></path>
<path d="M81.75 24.1439V11.6172H83.7465L88.9401 19.878V11.6172H91.4224V24.1439H89.4259L84.25 15.8831V24.1439H81.75Z" fill="black"></path>
<path d="M99.4976 24.2268C99.2301 24.2268 98.9238 24.1986 98.5752 24.1423C98.2302 24.0966 97.8922 23.9839 97.5682 23.8044C97.2548 23.6249 96.9941 23.3539 96.7794 22.9914C96.5786 22.6183 96.4766 22.1114 96.4766 21.4673V14.4771C96.4766 13.9245 96.5611 13.4599 96.7266 13.0904C96.8955 12.7173 97.1174 12.4251 97.3955 12.2105C97.6737 11.9957 97.9836 11.8444 98.3182 11.7529C98.6526 11.6614 98.9835 11.6191 99.3075 11.6191C100.146 11.6191 100.881 11.6297 101.519 11.6543C102.167 11.6755 102.748 11.7036 103.262 11.7388C103.776 11.7599 104.244 11.7951 104.67 11.8409V13.9386H100.044C99.6983 13.9386 99.4273 14.0231 99.2407 14.1921C99.0506 14.361 98.9554 14.6215 98.9554 14.9699V16.7826L103.867 16.9163V18.8979L98.9554 19.0317V20.7599C98.9554 21.052 99.0012 21.2843 99.0893 21.4533C99.1914 21.6116 99.3181 21.7243 99.4729 21.7911C99.6421 21.8475 99.8147 21.8756 99.9942 21.8756H104.67V23.9734C104.177 24.0297 103.631 24.0754 103.029 24.1071C102.438 24.1423 101.832 24.1705 101.219 24.1916C100.617 24.2127 100.04 24.2268 99.4942 24.2268H99.4976Z" fill="black"></path>
<path d="M112.095 24.1439V13.8698H108.693V11.6172H117.996V13.8698H114.577V24.1439H112.095Z" fill="black"></path>
<path d="M122.352 24.1439V11.6172H124.83V16.8299H129.506V11.6172H132.003V24.1439H129.506V19.0825H124.83V24.1439H122.352Z" fill="black"></path>
<path d="M140.168 24.2268C139.9 24.2268 139.594 24.1986 139.245 24.1423C138.9 24.0966 138.562 23.9839 138.238 23.8044C137.925 23.6249 137.664 23.3539 137.449 22.9914C137.249 22.6183 137.146 22.1114 137.146 21.4673V14.4771C137.146 13.9245 137.231 13.4599 137.397 13.0904C137.566 12.7173 137.787 12.4251 138.065 12.2105C138.344 11.9957 138.654 11.8444 138.988 11.7529C139.323 11.6614 139.654 11.6191 139.977 11.6191C140.816 11.6191 141.552 11.6297 142.189 11.6543C142.837 11.6755 143.418 11.7036 143.932 11.7388C144.446 11.7599 144.914 11.7951 145.34 11.8409V13.9386H140.713C140.368 13.9386 140.097 14.0231 139.911 14.1921C139.72 14.361 139.625 14.6215 139.625 14.9699V16.7826L144.534 16.9163V18.8979L139.625 19.0317V20.7599C139.625 21.052 139.671 21.2843 139.759 21.4533C139.861 21.6116 139.988 21.7243 140.143 21.7911C140.312 21.8475 140.485 21.8756 140.664 21.8756H145.34V23.9734C144.847 24.0297 144.301 24.0754 143.699 24.1071C143.108 24.1423 142.502 24.1705 141.889 24.1916C141.287 24.2127 140.71 24.2268 140.164 24.2268H140.168Z" fill="black"></path>
<path d="M150.164 11.6172H155.291C155.784 11.6172 156.241 11.6806 156.664 11.8037C157.09 11.9164 157.463 12.1205 157.787 12.4126C158.111 12.7048 158.361 13.1131 158.541 13.6305C158.731 14.1479 158.826 14.8166 158.826 15.6297C158.826 16.2069 158.77 16.6961 158.657 17.1009C158.544 17.5057 158.396 17.8401 158.206 18.1005C158.027 18.361 157.822 18.5686 157.586 18.727C157.35 18.8854 157.111 19.0157 156.864 19.1177L159.178 24.1474H156.646L154.653 19.5084H154.185C154.016 19.4979 153.843 19.4908 153.664 19.4908H153.129C152.949 19.4908 152.787 19.4838 152.643 19.4732V24.1474H150.164V11.6172ZM152.646 17.4916H154.858C155.083 17.4916 155.284 17.4635 155.46 17.4071C155.639 17.3508 155.794 17.2558 155.928 17.1185C156.062 16.9707 156.164 16.7806 156.231 16.5413C156.308 16.3055 156.347 15.9993 156.347 15.6262C156.347 15.2777 156.308 14.9891 156.231 14.7638C156.164 14.528 156.062 14.345 155.928 14.2218C155.794 14.088 155.639 13.9965 155.46 13.9508C155.28 13.8945 155.079 13.8663 154.858 13.8663H152.646V17.4916Z" fill="black"></path>
<path d="M163.354 24.1439L164.794 11.6172H167.174L170.022 21.2155L172.854 11.6172H175.216L176.674 24.1439H174.28L173.206 14.9187L173.593 14.9504L171.163 24.1439H168.832L166.368 14.9504L166.787 14.9363L165.748 24.1439H163.354Z" fill="black"></path>
<path d="M183.979 11.6172H181.5V24.1439H183.979V11.6172Z" fill="black"></path>
<path d="M189.23 24.1439V11.6172H191.224L196.421 19.878V11.6172H198.899V24.1439H196.907L191.727 15.8831V24.1439H189.23Z" fill="black"></path>
<path d="M203.965 11.6172H209.211C210.049 11.6172 210.746 11.7685 211.306 12.0748C211.866 12.3669 212.306 12.7963 212.63 13.363C212.965 13.9156 213.201 14.5773 213.334 15.3446C213.468 16.1119 213.535 16.9601 213.535 17.8823C213.535 19.2937 213.373 20.4623 213.049 21.388C212.736 22.3136 212.261 23.007 211.623 23.4716C210.986 23.9222 210.183 24.1474 209.211 24.1474H203.965V11.6172ZM206.444 21.8913H208.958C209.472 21.8913 209.88 21.7434 210.183 21.4513C210.486 21.1451 210.704 20.6946 210.838 20.0962C210.982 19.4979 211.056 18.7587 211.056 17.8788C211.056 17.0657 211.01 16.4005 210.922 15.8796C210.834 15.3481 210.701 14.9363 210.521 14.6441C210.352 14.352 210.137 14.1479 209.866 14.0353C209.609 13.9226 209.306 13.8663 208.961 13.8663H206.447V21.8913H206.444Z" fill="black"></path>
</g>
<defs>
<clipPath id="clip0_424_66">
<rect width="213.534" height="36" fill="white"></rect>
</clipPath>
</defs>
</svg>