<svg xmlns="http://www.w3.org/2000/svg" width="349.250" height="349.250" viewBox="0 0 349.250 349.250" fill="none">
  <path d="M 87.313 261.938 L 87.313 349.25 L 0 261.938 L 0 174.625 L 87.313 261.938 Z M 261.938 261.938 L 174.625 349.25 L 87.313 261.938 L 87.313 174.625 L 174.625 261.938 L 261.938 174.625 L 261.938 261.938 Z M 349.25 261.938 L 261.938 349.25 L 261.938 261.938 L 349.25 174.625 L 349.25 261.938 Z M 0 174.625 L 0 87.313 L 87.313 0 L 87.313 87.313 L 0 174.625 Z M 261.938 87.313 L 261.938 174.625 L 174.625 174.625 L 87.313 174.625 L 87.313 87.313 L 174.625 0 L 261.938 87.313 Z M 349.25 87.313 L 349.25 174.625 L 261.938 87.313 L 261.938 0 L 349.25 87.313 Z" fill="currentColor" fill-rule="nonzero"></path>
  <path d="M 87.313 349.25 L 85.898 350.664 L 89.313 354.078 L 89.313 349.25 L 87.313 349.25 Z M 0 261.938 L -2 261.938 L -2 262.766 L -1.414 263.352 L 0 261.938 Z M 174.625 349.25 L 173.211 350.664 L 174.625 352.078 L 176.039 350.664 L 174.625 349.25 Z M 174.625 261.938 L 173.211 263.352 L 174.625 264.766 L 176.039 263.352 L 174.625 261.938 Z M 349.25 261.938 L 350.664 263.352 L 351.25 262.766 L 351.25 261.938 L 349.25 261.938 Z M 261.938 349.25 L 259.938 349.25 L 259.938 354.078 L 263.352 350.664 L 261.938 349.25 Z M 0 87.313 L -1.414 85.898 L -2 86.484 L -2 87.313 L 0 87.313 Z M 87.313 0 L 89.313 0 L 89.313 -4.828 L 85.898 -1.414 L 87.313 0 Z M 174.625 0 L 176.039 -1.414 L 174.625 -2.828 L 173.211 -1.414 L 174.625 0 Z M 349.25 87.313 L 351.25 87.313 L 351.25 86.484 L 350.664 85.898 L 349.25 87.313 Z M 261.938 0 L 263.352 -1.414 L 259.938 -4.828 L 259.938 0 L 261.938 0 Z M 87.313 261.938 L 85.313 261.938 L 85.313 349.25 L 87.313 349.25 L 89.313 349.25 L 89.313 261.938 L 87.313 261.938 Z M 87.313 349.25 L 88.727 347.836 L 1.414 260.523 L 0 261.938 L -1.414 263.352 L 85.898 350.664 L 87.313 349.25 Z M 0 261.938 L 2 261.938 L 2 174.625 L 0 174.625 L -2 174.625 L -2 261.938 L 0 261.938 Z M 0 174.625 L -1.414 176.039 L 85.898 263.352 L 87.313 261.938 L 88.727 260.523 L 1.414 173.211 L 0 174.625 Z M 261.938 261.938 L 260.523 260.523 L 173.211 347.836 L 174.625 349.25 L 176.039 350.664 L 263.352 263.352 L 261.938 261.938 Z M 174.625 349.25 L 176.039 347.836 L 88.727 260.523 L 87.313 261.938 L 85.898 263.352 L 173.211 350.664 L 174.625 349.25 Z M 87.313 261.938 L 89.313 261.938 L 89.313 174.625 L 87.313 174.625 L 85.313 174.625 L 85.313 261.938 L 87.313 261.938 Z M 87.313 174.625 L 85.898 176.039 L 173.211 263.352 L 174.625 261.938 L 176.039 260.523 L 88.727 173.211 L 87.313 174.625 Z M 174.625 261.938 L 176.039 263.352 L 263.352 176.039 L 261.938 174.625 L 260.523 173.211 L 173.211 260.523 L 174.625 261.938 Z M 261.938 174.625 L 259.938 174.625 L 259.938 261.938 L 261.938 261.938 L 263.938 261.938 L 263.938 174.625 L 261.938 174.625 Z M 349.25 261.938 L 347.836 260.523 L 260.523 347.836 L 261.938 349.25 L 263.352 350.664 L 350.664 263.352 L 349.25 261.938 Z M 261.938 349.25 L 263.938 349.25 L 263.938 261.938 L 261.938 261.938 L 259.938 261.938 L 259.938 349.25 L 261.938 349.25 Z M 261.938 261.938 L 263.352 263.352 L 350.664 176.039 L 349.25 174.625 L 347.836 173.211 L 260.523 260.523 L 261.938 261.938 Z M 349.25 174.625 L 347.25 174.625 L 347.25 261.938 L 349.25 261.938 L 351.25 261.938 L 351.25 174.625 L 349.25 174.625 Z M 0 174.625 L 2 174.625 L 2 87.313 L 0 87.313 L -2 87.313 L -2 174.625 L 0 174.625 Z M 0 87.313 L 1.414 88.727 L 88.727 1.414 L 87.313 0 L 85.898 -1.414 L -1.414 85.898 L 0 87.313 Z M 87.313 0 L 85.313 0 L 85.313 87.313 L 87.313 87.313 L 89.313 87.313 L 89.313 0 L 87.313 0 Z M 87.313 87.313 L 85.898 85.898 L -1.414 173.211 L 0 174.625 L 1.414 176.039 L 88.727 88.727 L 87.313 87.313 Z M 261.938 87.313 L 259.938 87.313 L 259.938 174.625 L 261.938 174.625 L 263.938 174.625 L 263.938 87.313 L 261.938 87.313 Z M 261.938 174.625 L 261.938 172.625 L 174.625 172.625 L 174.625 174.625 L 174.625 176.625 L 261.938 176.625 L 261.938 174.625 Z M 174.625 174.625 L 174.625 172.625 L 87.313 172.625 L 87.313 174.625 L 87.313 176.625 L 174.625 176.625 L 174.625 174.625 Z M 87.313 174.625 L 89.313 174.625 L 89.313 87.313 L 87.313 87.313 L 85.313 87.313 L 85.313 174.625 L 87.313 174.625 Z M 87.313 87.313 L 88.727 88.727 L 176.039 1.414 L 174.625 0 L 173.211 -1.414 L 85.898 85.898 L 87.313 87.313 Z M 174.625 0 L 173.211 1.414 L 260.523 88.727 L 261.938 87.313 L 263.352 85.898 L 176.039 -1.414 L 174.625 0 Z M 349.25 87.313 L 347.25 87.313 L 347.25 174.625 L 349.25 174.625 L 351.25 174.625 L 351.25 87.313 L 349.25 87.313 Z M 349.25 174.625 L 350.664 173.211 L 263.352 85.898 L 261.938 87.313 L 260.523 88.727 L 347.836 176.039 L 349.25 174.625 Z M 261.938 87.313 L 263.938 87.313 L 263.938 0 L 261.938 0 L 259.938 0 L 259.938 87.313 L 261.938 87.313 Z M 261.938 0 L 260.523 1.414 L 347.836 88.727 L 349.25 87.313 L 350.664 85.898 L 263.352 -1.414 L 261.938 0 Z" fill="currentColor" fill-rule="nonzero"></path>
</svg>