<svg xmlns="http://www.w3.org/2000/svg" width="261.364" height="261.364" viewBox="0 0 261.364 261.364" fill="none">
  <path d="M 130.682 196.023 L 130.682 261.364 L 65.341 261.364 L 65.341 196.023 L 0 196.023 L 0 130.682 L 65.341 130.682 L 130.682 196.023 Z M 196.023 196.023 L 261.364 196.023 L 261.364 261.364 L 196.023 261.364 L 130.682 196.023 L 130.682 130.682 L 196.023 130.682 L 196.023 196.023 Z M 130.682 65.341 L 130.682 130.682 L 65.341 130.682 L 65.341 65.341 L 0 65.341 L 0 0 L 65.341 0 L 130.682 65.341 Z M 196.023 65.341 L 261.364 65.341 L 261.364 130.682 L 196.023 130.682 L 130.682 65.341 L 130.682 0 L 196.023 0 L 196.023 65.341 Z" fill="currentColor" fill-rule="nonzero"></path>
  <path d="M 130.682 261.364 L 130.682 263.364 L 132.682 263.364 L 132.682 261.364 L 130.682 261.364 Z M 65.341 261.364 L 63.341 261.364 L 63.341 263.364 L 65.341 263.364 L 65.341 261.364 Z M 65.341 196.023 L 67.341 196.023 L 67.341 194.023 L 65.341 194.023 L 65.341 196.023 Z M 0 196.023 L -2 196.023 L -2 198.023 L 0 198.023 L 0 196.023 Z M 0 130.682 L 0 128.682 L -2 128.682 L -2 130.682 L 0 130.682 Z M 196.023 196.023 L 194.023 196.023 L 194.023 198.023 L 196.023 198.023 L 196.023 196.023 Z M 261.364 196.023 L 263.364 196.023 L 263.364 194.023 L 261.364 194.023 L 261.364 196.023 Z M 261.364 261.364 L 261.364 263.364 L 263.364 263.364 L 263.364 261.364 L 261.364 261.364 Z M 196.023 261.364 L 194.609 262.778 L 195.194 263.364 L 196.023 263.364 L 196.023 261.364 Z M 65.341 65.341 L 67.341 65.341 L 67.341 63.341 L 65.341 63.341 L 65.341 65.341 Z M 0 65.341 L -2 65.341 L -2 67.341 L 0 67.341 L 0 65.341 Z M 0 0 L 0 -2 L -2 -2 L -2 0 L 0 0 Z M 65.341 0 L 66.755 -1.414 L 66.169 -2 L 65.341 -2 L 65.341 0 Z M 196.023 65.341 L 194.023 65.341 L 194.023 67.341 L 196.023 67.341 L 196.023 65.341 Z M 261.364 65.341 L 263.364 65.341 L 263.364 63.341 L 261.364 63.341 L 261.364 65.341 Z M 261.364 130.682 L 261.364 132.682 L 263.364 132.682 L 263.364 130.682 L 261.364 130.682 Z M 130.682 0 L 130.682 -2 L 128.682 -2 L 128.682 0 L 130.682 0 Z M 196.023 0 L 198.023 0 L 198.023 -2 L 196.023 -2 L 196.023 0 Z M 130.682 196.023 L 128.682 196.023 L 128.682 261.364 L 130.682 261.364 L 132.682 261.364 L 132.682 196.023 L 130.682 196.023 Z M 130.682 261.364 L 130.682 259.364 L 65.341 259.364 L 65.341 261.364 L 65.341 263.364 L 130.682 263.364 L 130.682 261.364 Z M 65.341 261.364 L 67.341 261.364 L 67.341 196.023 L 65.341 196.023 L 63.341 196.023 L 63.341 261.364 L 65.341 261.364 Z M 65.341 196.023 L 65.341 194.023 L 0 194.023 L 0 196.023 L 0 198.023 L 65.341 198.023 L 65.341 196.023 Z M 0 196.023 L 2 196.023 L 2 130.682 L 0 130.682 L -2 130.682 L -2 196.023 L 0 196.023 Z M 0 130.682 L 0 132.682 L 65.341 132.682 L 65.341 130.682 L 65.341 128.682 L 0 128.682 L 0 130.682 Z M 65.341 130.682 L 63.927 132.096 L 129.268 197.437 L 130.682 196.023 L 132.096 194.609 L 66.755 129.268 L 65.341 130.682 Z M 196.023 196.023 L 196.023 198.023 L 261.364 198.023 L 261.364 196.023 L 261.364 194.023 L 196.023 194.023 L 196.023 196.023 Z M 261.364 196.023 L 259.364 196.023 L 259.364 261.364 L 261.364 261.364 L 263.364 261.364 L 263.364 196.023 L 261.364 196.023 Z M 261.364 261.364 L 261.364 259.364 L 196.023 259.364 L 196.023 261.364 L 196.023 263.364 L 261.364 263.364 L 261.364 261.364 Z M 196.023 261.364 L 197.437 259.949 L 132.096 194.609 L 130.682 196.023 L 129.268 197.437 L 194.609 262.778 L 196.023 261.364 Z M 130.682 196.023 L 132.682 196.023 L 132.682 130.682 L 130.682 130.682 L 128.682 130.682 L 128.682 196.023 L 130.682 196.023 Z M 130.682 130.682 L 130.682 132.682 L 196.023 132.682 L 196.023 130.682 L 196.023 128.682 L 130.682 128.682 L 130.682 130.682 Z M 196.023 130.682 L 194.023 130.682 L 194.023 196.023 L 196.023 196.023 L 198.023 196.023 L 198.023 130.682 L 196.023 130.682 Z M 130.682 65.341 L 128.682 65.341 L 128.682 130.682 L 130.682 130.682 L 132.682 130.682 L 132.682 65.341 L 130.682 65.341 Z M 130.682 130.682 L 130.682 128.682 L 65.341 128.682 L 65.341 130.682 L 65.341 132.682 L 130.682 132.682 L 130.682 130.682 Z M 65.341 130.682 L 67.341 130.682 L 67.341 65.341 L 65.341 65.341 L 63.341 65.341 L 63.341 130.682 L 65.341 130.682 Z M 65.341 65.341 L 65.341 63.341 L 0 63.341 L 0 65.341 L 0 67.341 L 65.341 67.341 L 65.341 65.341 Z M 0 65.341 L 2 65.341 L 2 0 L 0 0 L -2 0 L -2 65.341 L 0 65.341 Z M 0 0 L 0 2 L 65.341 2 L 65.341 0 L 65.341 -2 L 0 -2 L 0 0 Z M 65.341 0 L 63.927 1.414 L 129.268 66.755 L 130.682 65.341 L 132.096 63.927 L 66.755 -1.414 L 65.341 0 Z M 196.023 65.341 L 196.023 67.341 L 261.364 67.341 L 261.364 65.341 L 261.364 63.341 L 196.023 63.341 L 196.023 65.341 Z M 261.364 65.341 L 259.364 65.341 L 259.364 130.682 L 261.364 130.682 L 263.364 130.682 L 263.364 65.341 L 261.364 65.341 Z M 261.364 130.682 L 261.364 128.682 L 196.023 128.682 L 196.023 130.682 L 196.023 132.682 L 261.364 132.682 L 261.364 130.682 Z M 196.023 130.682 L 197.437 129.268 L 132.096 63.927 L 130.682 65.341 L 129.268 66.755 L 194.609 132.096 L 196.023 130.682 Z M 130.682 65.341 L 132.682 65.341 L 132.682 0 L 130.682 0 L 128.682 0 L 128.682 65.341 L 130.682 65.341 Z M 130.682 0 L 130.682 2 L 196.023 2 L 196.023 0 L 196.023 -2 L 130.682 -2 L 130.682 0 Z M 196.023 0 L 194.023 0 L 194.023 65.341 L 196.023 65.341 L 198.023 65.341 L 198.023 0 L 196.023 0 Z" fill="currentColor" fill-rule="nonzero"></path>
</svg>