<svg xmlns="http://www.w3.org/2000/svg" width="160" height="160" viewBox="0 0 160 160" fill="none">
  <path d="M 160 32 L 160 80 L 80 0 L 128 0 L 160 32 Z" fill="currentColor" fill-rule="nonzero"></path>
  <path d="M 80 160 L 160 80 L 160 128 L 128 160 L 80 160 Z" fill="currentColor" fill-rule="nonzero"></path>
  <path d="M 0 80 L 80 160 L 32 160 L 0 128 L 0 80 Z" fill="currentColor" fill-rule="nonzero"></path>
  <path d="M 0 80 L 0 32 L 32 0 L 80 0 L 0 80 Z" fill="currentColor" fill-rule="nonzero"></path>
  <path d="M 40 80 L 80 40 L 120 80 L 80 120 L 40 80 Z" fill="currentColor" fill-rule="nonzero"></path>
  <path d="M 160 32 L 162 32 L 162 31.172 L 161.414 30.586 L 160 32 Z M 128 0 L 129.414 -1.414 L 128.828 -2 L 128 -2 L 128 0 Z M 160 128 L 161.414 129.414 L 162 128.828 L 162 128 L 160 128 Z M 128 160 L 128 162 L 128.828 162 L 129.414 161.414 L 128 160 Z M 32 160 L 30.586 161.414 L 31.172 162 L 32 162 L 32 160 Z M 0 128 L -2 128 L -2 128.828 L -1.414 129.414 L 0 128 Z M 0 32 L -1.414 30.586 L -2 31.172 L -2 32 L 0 32 Z M 32 0 L 32 -2 L 31.172 -2 L 30.586 -1.414 L 32 0 Z M 80 40 L 81.414 38.586 L 80 37.172 L 78.586 38.586 L 80 40 Z M 40 80 L 38.586 78.586 L 37.172 80 L 38.586 81.414 L 40 80 Z M 120 80 L 121.414 81.414 L 122.828 80 L 121.414 78.586 L 120 80 Z M 80 120 L 78.586 121.414 L 80 122.828 L 81.414 121.414 L 80 120 Z M 160 80 L 162 80 L 162 32 L 160 32 L 158 32 L 158 80 L 160 80 Z M 80 0 L 78.586 1.414 L 158.586 81.414 L 160 80 L 161.414 78.586 L 81.414 -1.414 L 80 0 Z M 128 0 L 128 -2 L 80 -2 L 80 0 L 80 2 L 128 2 L 128 0 Z M 160 32 L 161.414 30.586 L 129.414 -1.414 L 128 0 L 126.586 1.414 L 158.586 33.414 L 160 32 Z M 160 80 L 158.586 78.586 L 78.586 158.586 L 80 160 L 81.414 161.414 L 161.414 81.414 L 160 80 Z M 160 128 L 162 128 L 162 80 L 160 80 L 158 80 L 158 128 L 160 128 Z M 128 160 L 129.414 161.414 L 161.414 129.414 L 160 128 L 158.586 126.586 L 126.586 158.586 L 128 160 Z M 80 160 L 80 162 L 128 162 L 128 160 L 128 158 L 80 158 L 80 160 Z M 0 80 L -1.414 81.414 L 78.586 161.414 L 80 160 L 81.414 158.586 L 1.414 78.586 L 0 80 Z M 80 160 L 80 158 L 32 158 L 32 160 L 32 162 L 80 162 L 80 160 Z M 32 160 L 33.414 158.586 L 1.414 126.586 L 0 128 L -1.414 129.414 L 30.586 161.414 L 32 160 Z M 0 128 L 2 128 L 2 80 L 0 80 L -2 80 L -2 128 L 0 128 Z M 0 32 L -2 32 L -2 80 L 0 80 L 2 80 L 2 32 L 0 32 Z M 32 0 L 30.586 -1.414 L -1.414 30.586 L 0 32 L 1.414 33.414 L 33.414 1.414 L 32 0 Z M 80 0 L 80 -2 L 32 -2 L 32 0 L 32 2 L 80 2 L 80 0 Z M 0 80 L 1.414 81.414 L 81.414 1.414 L 80 0 L 78.586 -1.414 L -1.414 78.586 L 0 80 Z M 80 40 L 78.586 38.586 L 38.586 78.586 L 40 80 L 41.414 81.414 L 81.414 41.414 L 80 40 Z M 120 80 L 121.414 78.586 L 81.414 38.586 L 80 40 L 78.586 41.414 L 118.586 81.414 L 120 80 Z M 80 120 L 81.414 121.414 L 121.414 81.414 L 120 80 L 118.586 78.586 L 78.586 118.586 L 80 120 Z M 40 80 L 38.586 81.414 L 78.586 121.414 L 80 120 L 81.414 118.586 L 41.414 78.586 L 40 80 Z" fill="currentColor" fill-rule="nonzero"></path>
</svg>