<svg xmlns="http://www.w3.org/2000/svg" width="253.500" height="253.500" viewBox="0 0 253.500 253.500" fill="none">
  <path d="M 84.5 84.5 L 169 0 L 253.5 0 L 253.5 84.5 L 169 169 L 169 84.5 L 84.5 84.5 Z" fill="currentColor" fill-rule="nonzero"></path>
  <path d="M 169 169 L 253.5 169 L 253.5 253.5 L 169 253.5 L 169 169 Z" fill="currentColor" fill-rule="nonzero"></path>
  <path d="M 84.5 84.5 L 0 169 L 0 253.5 L 84.5 253.5 L 169 169 L 84.5 169 L 84.5 84.5 Z" fill="currentColor" fill-rule="nonzero"></path>
  <path d="M 84.5 84.5 L 0 84.5 L 0 0 L 84.5 0 L 84.5 84.5 Z" fill="currentColor" fill-rule="nonzero"></path>
  <path d="M 169 0 L 169 -2 L 168.172 -2 L 167.586 -1.414 L 169 0 Z M 253.5 0 L 255.5 0 L 255.5 -2 L 253.5 -2 L 253.5 0 Z M 253.5 84.5 L 254.914 85.914 L 255.5 85.328 L 255.5 84.5 L 253.5 84.5 Z M 169 84.5 L 171 84.5 L 171 82.5 L 169 82.5 L 169 84.5 Z M 253.5 169 L 255.5 169 L 255.5 167 L 253.5 167 L 253.5 169 Z M 253.5 253.5 L 253.5 255.5 L 255.5 255.5 L 255.5 253.5 L 253.5 253.5 Z M 169 253.5 L 167 253.5 L 167 255.5 L 169 255.5 L 169 253.5 Z M 0 169 L -1.414 167.586 L -2 168.172 L -2 169 L 0 169 Z M 0 253.5 L -2 253.5 L -2 255.5 L 0 255.5 L 0 253.5 Z M 84.5 253.5 L 84.5 255.5 L 85.328 255.5 L 85.914 254.914 L 84.5 253.5 Z M 84.5 169 L 82.5 169 L 82.5 171 L 84.5 171 L 84.5 169 Z M 0 84.5 L -2 84.5 L -2 86.5 L 0 86.5 L 0 84.5 Z M 0 0 L 0 -2 L -2 -2 L -2 0 L 0 0 Z M 84.5 0 L 86.5 0 L 86.5 -2 L 84.5 -2 L 84.5 0 Z M 169 0 L 167.586 -1.414 L 83.086 83.086 L 84.5 84.5 L 85.914 85.914 L 170.414 1.414 L 169 0 Z M 253.5 0 L 253.5 -2 L 169 -2 L 169 0 L 169 2 L 253.5 2 L 253.5 0 Z M 253.5 84.5 L 255.5 84.5 L 255.5 0 L 253.5 0 L 251.5 0 L 251.5 84.5 L 253.5 84.5 Z M 169 169 L 170.414 170.414 L 254.914 85.914 L 253.5 84.5 L 252.086 83.086 L 167.586 167.586 L 169 169 Z M 169 169 L 171 169 L 171 84.5 L 169 84.5 L 167 84.5 L 167 169 L 169 169 Z M 169 84.5 L 169 82.5 L 84.5 82.5 L 84.5 84.5 L 84.5 86.5 L 169 86.5 L 169 84.5 Z M 253.5 169 L 253.5 167 L 169 167 L 169 169 L 169 171 L 253.5 171 L 253.5 169 Z M 253.5 253.5 L 255.5 253.5 L 255.5 169 L 253.5 169 L 251.5 169 L 251.5 253.5 L 253.5 253.5 Z M 169 253.5 L 169 255.5 L 253.5 255.5 L 253.5 253.5 L 253.5 251.5 L 169 251.5 L 169 253.5 Z M 169 169 L 167 169 L 167 253.5 L 169 253.5 L 171 253.5 L 171 169 L 169 169 Z M 84.5 84.5 L 83.086 83.086 L -1.414 167.586 L 0 169 L 1.414 170.414 L 85.914 85.914 L 84.5 84.5 Z M 0 169 L -2 169 L -2 253.5 L 0 253.5 L 2 253.5 L 2 169 L 0 169 Z M 0 253.5 L 0 255.5 L 84.5 255.5 L 84.5 253.5 L 84.5 251.5 L 0 251.5 L 0 253.5 Z M 84.5 253.5 L 85.914 254.914 L 170.414 170.414 L 169 169 L 167.586 167.586 L 83.086 252.086 L 84.5 253.5 Z M 84.5 169 L 84.5 171 L 169 171 L 169 169 L 169 167 L 84.5 167 L 84.5 169 Z M 84.5 84.5 L 82.5 84.5 L 82.5 169 L 84.5 169 L 86.5 169 L 86.5 84.5 L 84.5 84.5 Z M 0 84.5 L 0 86.5 L 84.5 86.5 L 84.5 84.5 L 84.5 82.5 L 0 82.5 L 0 84.5 Z M 0 0 L -2 0 L -2 84.5 L 0 84.5 L 2 84.5 L 2 0 L 0 0 Z M 84.5 0 L 84.5 -2 L 0 -2 L 0 0 L 0 2 L 84.5 2 L 84.5 0 Z M 84.5 84.5 L 86.5 84.5 L 86.5 0 L 84.5 0 L 82.5 0 L 82.5 84.5 L 84.5 84.5 Z" fill="currentColor" fill-rule="nonzero"></path>
</svg>