<svg width="1602" height="189" viewBox="0 0 1602 189" fill="none" xmlns="http://www.w3.org/2000/svg">
<path d="M122.397 54.0866V99.3359C122.397 101.82 125.145 103.32 127.235 101.977L207.258 50.5213C208.156 49.9436 208.699 48.9487 208.699 47.8805V3.14468C208.699 0.667044 205.964 -0.834303 203.874 0.496212L123.851 51.4381C122.945 52.0145 122.397 53.0133 122.397 54.0866Z" fill="#A2D0FC"></path>
<path d="M86.3022 54.091V99.3403C86.3022 101.824 83.5541 103.325 81.4647 101.981L1.44137 50.5257C0.542915 49.9479 -0.000175476 48.9531 -0.000175476 47.8849V3.14907C-0.000175476 0.671438 2.73531 -0.829908 4.82539 0.500606L84.8487 51.4425C85.754 52.0189 86.3022 53.0177 86.3022 54.091Z" fill="#A2D0FC"></path>
<path d="M146.932 120.632V153.186C146.932 154.259 147.48 155.257 148.384 155.833L189.811 182.236C191.901 183.568 194.638 182.067 194.638 179.589V133.526C194.638 132.459 194.096 131.464 193.199 130.886L162.534 111.137C161.504 110.474 160.181 110.47 159.148 111.129L148.385 117.984C147.48 118.56 146.932 119.559 146.932 120.632Z" fill="#A2D0FC"></path>
<path d="M61.7595 120.633V153.186C61.7595 154.259 61.2119 155.257 60.3073 155.834L18.8801 182.237C16.7901 183.569 14.0531 182.068 14.0531 179.589V133.526C14.0531 132.459 14.5954 131.465 15.4927 130.887L46.1571 111.138C47.1876 110.474 48.51 110.471 49.5438 111.129L60.3066 117.985C61.2116 118.561 61.7595 119.56 61.7595 120.633Z" fill="#A2D0FC"></path>
<path d="M289.757 13.512H369.63C381.262 13.512 391.343 14.7721 399.873 17.2924C408.403 19.8127 415.48 23.4638 421.102 28.2459C426.724 32.9633 430.892 38.747 433.606 45.597C436.385 52.4469 437.774 60.1693 437.774 68.7641C437.774 76.8419 436.417 84.3057 433.703 91.1557C430.989 98.0057 426.821 103.951 421.199 108.991C415.641 113.967 408.597 117.877 400.067 120.72C391.537 123.499 381.456 124.889 369.824 124.889L320.485 124.792V165.019H289.757V13.512ZM370.406 98.2318C376.222 98.2318 381.294 97.5533 385.624 96.1962C390.018 94.7745 393.67 92.8036 396.578 90.2833C399.55 87.6984 401.747 84.5965 403.169 80.9777C404.655 77.2942 405.399 73.223 405.399 68.7641C405.399 59.7816 402.458 52.8024 396.578 47.8264C390.762 42.7859 382.038 40.2656 370.406 40.2656H320.485V98.2318H370.406Z" fill="#A2D0FC"></path>
<path d="M474.98 13.512H552.042C563.674 13.512 573.755 14.7398 582.286 17.1955C590.816 19.5865 597.892 23.0761 603.514 27.6643C609.136 32.2525 613.304 37.8423 616.018 44.4338C618.797 51.0253 620.187 58.4891 620.187 66.8254C620.187 72.4476 619.508 77.8112 618.151 82.9164C616.794 87.9569 614.694 92.6097 611.85 96.8748C609.072 101.14 605.55 104.953 601.285 108.313C597.019 111.609 592.011 114.355 586.26 116.552L619.217 165.019H581.607L553.109 121.981H552.236L505.708 121.884V165.019H474.98V13.512ZM552.818 95.3238C558.634 95.3238 563.707 94.6453 568.036 93.2882C572.431 91.9312 576.082 90.0248 578.99 87.5692C581.962 85.1135 584.16 82.1409 585.581 78.6513C587.068 75.0971 587.811 71.1551 587.811 66.8254C587.811 58.3599 584.903 51.833 579.087 47.2448C573.271 42.592 564.514 40.2656 552.818 40.2656H505.708V95.3238H552.818Z" fill="#A2D0FC"></path>
<path d="M655.816 88.831C655.816 77.3928 657.849 66.924 661.915 57.4245C665.981 47.925 671.673 39.7826 678.992 32.9973C686.373 26.1473 695.194 20.8483 705.452 17.1002C715.774 13.3521 727.19 11.478 739.7 11.478C752.149 11.478 763.533 13.3521 773.855 17.1002C784.176 20.8483 792.996 26.1473 800.315 32.9973C807.696 39.7826 813.42 47.925 817.486 57.4245C821.552 66.924 823.585 77.3928 823.585 88.831C823.585 100.334 821.552 110.899 817.486 120.528C813.42 130.092 807.696 138.332 800.315 145.246C792.996 152.161 784.176 157.557 773.855 161.434C763.533 165.247 752.149 167.153 739.7 167.153C727.19 167.153 715.774 165.247 705.452 161.434C695.194 157.557 686.373 152.161 678.992 145.246C671.673 138.332 665.981 130.092 661.915 120.528C657.849 110.899 655.816 100.334 655.816 88.831ZM685.56 88.831C685.56 96.6503 686.905 103.694 689.595 109.962C692.347 116.231 696.132 121.594 700.949 126.053C705.828 130.448 711.551 133.84 718.119 136.231C724.75 138.622 731.944 139.818 739.7 139.818C747.457 139.818 754.619 138.622 761.187 136.231C767.818 133.84 773.542 130.448 778.358 126.053C783.175 121.594 786.96 116.231 789.712 109.962C792.464 103.694 793.841 96.6503 793.841 88.831C793.841 81.0117 792.464 74.0001 789.712 67.7964C786.96 61.5926 783.175 56.3582 778.358 52.0932C773.542 47.7635 767.818 44.4677 761.187 42.2059C754.619 39.9442 747.457 38.8133 739.7 38.8133C731.944 38.8133 724.75 39.9442 718.119 42.2059C711.551 44.4677 705.828 47.7635 700.949 52.0932C696.132 56.3582 692.347 61.5926 689.595 67.7964C686.905 74.0001 685.56 81.0117 685.56 88.831Z" fill="#A2D0FC"></path>
<path d="M837.51 13.5136H871.533L919.128 129.058L966.722 13.5136H1000.75L934.346 165.021H903.909L837.51 13.5136Z" fill="#A2D0FC"></path>
<path d="M1036.21 13.5136H1165.23V40.4611H1066.94V70.7044H1153.99V96.004H1066.94V138.17H1167.27V165.021H1036.21V13.5136Z" fill="#A2D0FC"></path>
<path d="M1203.46 13.5136H1234.19V91.9328L1314.16 13.5136H1353.52L1278.88 85.826L1353.52 165.021H1312.61L1256.78 107.248L1234.19 129.058V165.021H1203.46V13.5136Z" fill="#A2D0FC"></path>
<path d="M1390.11 13.5136H1421.03V165.021H1390.11V13.5136Z" fill="#A2D0FC"></path>
<path d="M1514.46 40.4611H1458.53V13.5136H1601.12V40.4611H1545.19V165.021H1514.46V40.4611Z" fill="#A2D0FC"></path>
</svg>